<?xml version="1.0" encoding="utf-8"?>
<svg xmlns="http://www.w3.org/2000/svg" viewBox="0 0 16 16">
  <defs>
    <style>.icon-canvas-transparent,.icon-vs-out{fill:#f6f6f6;}.icon-canvas-transparent{opacity:0;}.icon-vs-fg{fill:#f0eff1;}.icon-vs-bg{fill:#424242;}</style>
  </defs>
  <title>XMLFile_16x</title>
  <path class="icon-canvas-transparent" d="M16,0V16H0V0Z"/>
  <path class="icon-vs-out" d="M15,4.379V16H2V14.2l-2-2V11.8l2-2V0h8.621Z"/>
  <path class="icon-vs-fg" d="M12.793,5H10V2.207ZM9,6V2H4V8h6.2L13,10.8V6Zm4,8v-.8l-.8.8Z"/>
  <path class="icon-vs-bg" d="M10.207,1H3V8.8L3.8,8H4V2H9V6h4v4.8l1,1v-7ZM10,5V2.207L12.793,5Zm3,8.2,1-1V15H11.2l1-1H13ZM4.77,9.854,2.624,12,4.77,14.146l-.707.707L1.209,12,4.063,9.146ZM7.736,8.814l.929.371-2.4,6-.929-.371ZM12.791,12,9.937,14.854l-.707-.707L11.376,12,9.23,9.854l.707-.707Z"/>
  <path class="icon-canvas-transparent" d="M 15.993 -0.462 L 15.993 9.883 L 5.508 9.883 L 5.508 -0.462 L 15.993 -0.462 Z" id="canvas" style="stroke-width: 1;"/>
  <path class="icon-vs-out" d="M 9.304 0.106 L 11.157 1.935 L 10.31 2.771 L 12.389 2.771 C 14.376 2.771 15.993 4.366 15.993 6.327 C 15.993 8.287 14.376 9.883 12.389 9.883 L 11.734 9.883 L 11.734 7.297 L 12.389 7.297 C 12.931 7.297 13.372 6.861 13.372 6.327 C 13.372 5.793 12.931 5.357 12.389 5.357 L 10.31 5.357 L 11.157 6.193 L 9.304 8.022 L 5.508 4.276 L 5.508 3.852 L 9.304 0.106 Z" id="outline" style="stroke-width: 1;"/>
  <path class="icon-vs-action-blue" d="M 9.304 1.021 L 10.231 1.935 L 8.729 3.417 L 12.389 3.417 C 14.015 3.417 15.337 4.723 15.337 6.327 C 15.337 7.93 14.015 9.236 12.389 9.236 L 12.389 7.942 C 13.291 7.942 14.027 7.218 14.027 6.327 C 14.027 5.436 13.291 4.71 12.389 4.71 L 8.729 4.71 L 10.231 6.193 L 9.304 7.108 L 6.22 4.064 L 9.304 1.021 Z" id="iconBg" style="fill: rgb(0, 83, 156); stroke-width: 1;"/>
</svg>