<svg xmlns="http://www.w3.org/2000/svg" viewBox="0 0 16 16">
<style>
.icon-canvas-transparent{opacity:0;fill:#f6f6f6}
.icon-vs-out{fill:#f6f6f6}
.icon-vs-fg{fill:#f0eff1}
.icon-vs-blue{fill:#1ba1e2}
.icon-vs-bg{fill:#424242}
.icon-vs-action-blue{fill:#00539c}
</style>

<!-- Canvas -->
<path class="icon-canvas-transparent" d="M0 0h16v16H0z"/>

<!-- Файл -->
<path class="icon-vs-out" d="M16 4.4V16H3V9.967a3.483 3.483 0 0 1 0-6.9V0h2.711L5.729 0l.017 0h5.875Z"/>
<path class="icon-vs-bg" d="M11.207 1H6.746l1 1H10v4h4v8H5v-4H4v5h11V4.811ZM11 5V2.225l2.793 2.793Z"/>

<!-- Маленькая иконка базы данных в правом нижнем углу -->
<g transform="translate(9 9) scale(0.4)">
    <path class="icon-vs-blue" d="M13 12.75v-9.5c0-.688-.581-1.293-1.637-1.703C10.457 1.194 9.263 1 8 1s-2.457.194-3.363.547C3.581 1.957 3 2.562 3 3.25v9.5c0 .688.581 1.293 1.637 1.703.906.353 2.1.547 3.363.547s2.457-.194 3.363-.547C12.419 14.043 13 13.438 13 12.75z"/>
    <path class="icon-vs-fg" d="M8 4.5c2.588 0 4-.826 4-1.25S10.588 2 8 2s-4 .826-4 1.25S5.412 4.5 8 4.5z"/>
</g>

<!-- Стрелка открытия -->
<path class="icon-vs-action-blue" d="M8.832 4.518l-3.1 3.1-.708-.707 1.9-1.9H3.5a1.5 1.5 0 0 0 0 3v1a2.5 2.5 0 0 1 0-5H6.918l-1.9-1.9.708-.707Z"/>
</svg>