<?xml version="1.0" encoding="utf-8"?>
<svg xmlns="http://www.w3.org/2000/svg" viewBox="0 0 16 16" enable-background="new 0 0 16 16">
  <style type="text/css">.icon-canvas-transparent{opacity:0;fill:#F6F6F6;} .icon-vs-out{fill:#F6F6F6;} .icon-vs-bg{fill:#424242;} .icon-vs-fg_x0020_2{fill:#F0EFF1;}</style>
  <path class="icon-canvas-transparent" d="M16 16h-16v-16h16v16z" id="canvas"/>
  <path class="icon-vs-out" d="M15 16h-13v-16h8.621l4.379 4.379v11.621z" id="outline"/>
  <path class="icon-vs-fg_x0020_2" d="M13 14h-9v-12h5v4h4v8zm-3-9v-2.793l2.793 2.793h-2.793z" id="iconFg"/>
  <path class="icon-vs-bg" d="M3 1v14h11v-10.207l-3.793-3.793h-7.207zm10 13h-9v-12h5v4h4v8zm-3-9v-2.793l2.793 2.793h-2.793z" id="iconBg"/>
  <title>Previous_16x</title>
  <g id="group-1" transform="matrix(0.747157, 0, 0, 0.681539, 4.045494, -0.699913)" style="">
    <path class="icon-canvas-transparent" d="M16,0V16H0V0Z"/>
  </g>
  <g id="group-2" transform="matrix(0.747157, 0, 0, 0.681539, 4.045494, -0.699913)" style="">
    <polygon class="icon-vs-out" points="0 7.672 0 8.328 7.293 15.621 10.121 12.793 7.328 10 16 10 16 6 7.328 6 10.121 3.207 7.293 0.379 0 7.672"/>
  </g>
  <g id="group-3" transform="matrix(0.747157, 0, 0, 0.681539, 4.045494, -0.699913)" style="">
    <path class="icon-vs-action-blue" d="M8.707,3.207,4.914,7H15V9H4.914l3.793,3.793L7.293,14.207,1.086,8,7.293,1.793Z" style="fill: rgb(0, 83, 156);"/>
  </g>
</svg>